<?xml version="1.0" encoding="utf-8"?>
<!-- Generator: Adobe Illustrator 24.0.0, SVG Export Plug-In . SVG Version: 6.00 Build 0)  -->
<svg version="1.1" id="Capa_1" xmlns="http://www.w3.org/2000/svg" xmlns:xlink="http://www.w3.org/1999/xlink" x="0px" y="0px"
	 viewBox="0 0 622.83 159.51" style="enable-background:new 0 0 622.83 159.51;" xml:space="preserve">
<style type="text/css">
	.st0{fill:#D11A21;}
	.st1{fill:#0B79B7;}
	.st2{fill:#FDD700;}
</style>
<g>
	<path class="st0" d="M125.43,34.76H99.96c-3.69,0-6.71,3.02-6.71,6.71c0,3.69,3.02,6.71,6.71,6.71h25.47
		c3.69,0,6.71-3.02,6.71-6.71C132.14,37.78,129.12,34.76,125.43,34.76z M125.22,46.19c-2.61,0-4.72-2.11-4.72-4.72
		s2.11-4.72,4.72-4.72c2.61,0,4.72,2.11,4.72,4.72S127.83,46.19,125.22,46.19z"/>
	<path class="st1" d="M74.94,112.1V40.33c0-3.69,3.02-6.71,6.71-6.71h0c3.69,0,6.71,3.02,6.71,6.71v71.77
		c0,3.69-3.02,6.71-6.71,6.71h0C77.96,118.81,74.94,115.79,74.94,112.1z"/>
	<path class="st2" d="M125.43,69.86H99.96c-3.69,0-6.71,3.02-6.71,6.71v0c0,3.69,3.02,6.71,6.71,6.71h25.47
		c3.69,0,6.71-3.02,6.71-6.71v0C132.14,72.88,129.12,69.86,125.43,69.86z M125.22,81.29c-2.61,0-4.72-2.11-4.72-4.72
		c0-2.61,2.11-4.72,4.72-4.72c2.61,0,4.72,2.11,4.72,4.72C129.94,79.18,127.83,81.29,125.22,81.29z"/>
	<path class="st1" d="M125.43,105.39H99.96c-3.69,0-6.71,3.02-6.71,6.71c0,3.69,3.02,6.71,6.71,6.71h25.47
		c3.69,0,6.71-3.02,6.71-6.71C132.14,108.41,129.12,105.39,125.43,105.39z M125.22,116.82c-2.61,0-4.72-2.11-4.72-4.72
		c0-2.61,2.11-4.72,4.72-4.72c2.61,0,4.72,2.11,4.72,4.72C129.94,114.71,127.83,116.82,125.22,116.82z"/>
	<g>
		<path class="st1" d="M174.27,60.21c7.14,0,13.25,2.77,18.32,8.31c5.07,5.51,7.61,12.16,7.61,19.97v23.67c0,1.27-0.47,2.37-1.4,3.3
			c-0.9,0.9-2,1.35-3.3,1.35s-2.4-0.45-3.3-1.35c-0.9-0.93-1.35-2.04-1.35-3.3V88.49c0-5.21-1.62-9.66-4.85-13.36
			c-3.27-3.67-7.17-5.51-11.71-5.51c-4.6,0-8.53,1.83-11.76,5.51c-3.24,3.7-4.85,8.16-4.85,13.36v23.52c0,1.3-0.45,2.4-1.35,3.3
			c-0.93,0.9-2.04,1.35-3.3,1.35c-1.3,0-2.42-0.45-3.35-1.35c-0.9-0.9-1.35-2-1.35-3.3v-47.1c0-1.3,0.45-2.4,1.35-3.3
			c0.93-0.93,2.05-1.4,3.35-1.4c1.27,0,2.37,0.47,3.3,1.4c0.9,0.9,1.35,2,1.35,3.3v1.85C162.45,62.4,167.99,60.21,174.27,60.21z"/>
		<path class="st1" d="M233.83,60.36c1.3,0,2.4,0.47,3.3,1.4c0.9,0.9,1.35,2,1.35,3.3c0,1.3-0.45,2.4-1.35,3.3
			c-0.9,0.94-2,1.4-3.3,1.4h-7.31v42.39c0,1.3-0.45,2.4-1.35,3.3c-0.9,0.9-2,1.35-3.3,1.35s-2.4-0.45-3.3-1.35
			c-0.93-0.9-1.4-2-1.4-3.3V69.77h-7.26c-1.3,0-2.42-0.47-3.35-1.4c-0.9-0.9-1.35-2-1.35-3.3c0-1.3,0.45-2.4,1.35-3.3
			c0.93-0.93,2.05-1.4,3.35-1.4h7.26V45.95c0-1.3,0.47-2.4,1.4-3.3c0.9-0.93,2-1.4,3.3-1.4s2.4,0.47,3.3,1.4
			c0.9,0.9,1.35,2,1.35,3.3v14.41H233.83z"/>
		<path class="st1" d="M270.41,60.36c1.3,0,2.4,0.47,3.3,1.4c0.93,0.9,1.4,2,1.4,3.3c0,1.3-0.47,2.4-1.4,3.3
			c-0.9,0.94-2,1.4-3.3,1.4c-4.57,0-8.48,1.83-11.71,5.5c-3.24,3.7-4.85,8.16-4.85,13.36v23.52c0,1.3-0.45,2.4-1.35,3.3
			c-0.93,0.9-2.04,1.35-3.3,1.35c-1.3,0-2.42-0.45-3.35-1.35c-0.9-0.9-1.35-2-1.35-3.3v-47.1c0-1.3,0.45-2.4,1.35-3.3
			c0.93-0.93,2.05-1.4,3.35-1.4c1.27,0,2.37,0.47,3.3,1.4c0.9,0.9,1.35,2,1.35,3.3v1.85C258.65,62.55,264.17,60.36,270.41,60.36z"/>
		<path class="st1" d="M285.93,108.56c-2.6-2.6-4.62-5.57-6.06-8.91c-1.5-3.5-2.25-7.16-2.25-10.96c0-7.81,2.77-14.48,8.31-20.02
			c2.64-2.6,5.66-4.62,9.06-6.06c3.5-1.5,7.19-2.25,11.06-2.25c7.81,0,14.5,2.77,20.07,8.31c2.6,2.6,4.62,5.61,6.06,9.01
			c1.5,3.5,2.25,7.17,2.25,11.01c0,1.3-0.45,2.4-1.35,3.3c-0.94,0.93-2.05,1.4-3.35,1.4h-42.14c1.07,4.07,3.3,7.42,6.71,10.06
			c3.44,2.67,7.36,4,11.76,4c6.94,0,12.3-2.12,16.07-6.36c0.83-0.97,1.9-1.48,3.2-1.55c1.3-0.07,2.44,0.32,3.4,1.15
			c0.97,0.87,1.48,1.95,1.55,3.25c0.07,1.27-0.33,2.39-1.2,3.35c-5.61,6.34-13.28,9.51-23.02,9.51
			C298.21,116.82,291.5,114.07,285.93,108.56z M324.47,83.99c-1.07-4.14-3.29-7.54-6.66-10.21c-3.47-2.7-7.39-4.05-11.76-4.05
			c-4.4,0-8.34,1.35-11.81,4.05c-3.37,2.67-5.59,6.07-6.66,10.21H324.47z"/>
		<path class="st1" d="M369.71,60.31c7.64,0,14.18,2.77,19.62,8.31c5.41,5.51,8.11,12.16,8.11,19.97c0,7.78-2.7,14.41-8.11,19.92
			c-5.44,5.51-11.98,8.26-19.62,8.26c-7.01,0-13.15-2.37-18.42-7.11v21.57c0,1.3-0.45,2.4-1.35,3.3c-0.93,0.9-2.04,1.35-3.3,1.35
			c-1.3,0-2.42-0.45-3.35-1.35c-0.9-0.9-1.35-2-1.35-3.3V65.02c0-1.3,0.45-2.4,1.35-3.3c0.93-0.93,2.05-1.4,3.35-1.4
			c1.27,0,2.37,0.47,3.3,1.4c0.9,0.9,1.35,2,1.35,3.3v2.4C356.57,62.68,362.7,60.31,369.71,60.31z M369.71,107.41
			c5.07,0,9.41-1.83,13.01-5.51c3.57-3.7,5.36-8.14,5.36-13.31c0-5.21-1.79-9.66-5.36-13.36c-3.6-3.67-7.94-5.51-13.01-5.51
			c-5.07,0-9.41,1.84-13.01,5.51c-3.6,3.7-5.41,8.16-5.41,13.36c0,5.17,1.8,9.61,5.41,13.31
			C360.3,105.58,364.64,107.41,369.71,107.41z"/>
		<path class="st1" d="M433.12,60.36c1.3,0,2.4,0.47,3.3,1.4c0.93,0.9,1.4,2,1.4,3.3c0,1.3-0.47,2.4-1.4,3.3
			c-0.9,0.94-2,1.4-3.3,1.4c-4.57,0-8.48,1.83-11.71,5.5c-3.24,3.7-4.85,8.16-4.85,13.36v23.52c0,1.3-0.45,2.4-1.35,3.3
			c-0.93,0.9-2.04,1.35-3.3,1.35c-1.3,0-2.42-0.45-3.35-1.35c-0.9-0.9-1.35-2-1.35-3.3v-47.1c0-1.3,0.45-2.4,1.35-3.3
			c0.93-0.93,2.05-1.4,3.35-1.4c1.27,0,2.37,0.47,3.3,1.4c0.9,0.9,1.35,2,1.35,3.3v1.85C421.36,62.55,426.88,60.36,433.12,60.36z"/>
		<path class="st1" d="M468.11,60.36c7.64,0,14.18,2.77,19.62,8.31c5.44,5.51,8.16,12.16,8.16,19.97c0,7.77-2.72,14.42-8.16,19.92
			c-5.44,5.5-11.98,8.26-19.62,8.26c-7.67,0-14.21-2.75-19.62-8.26c-5.44-5.5-8.16-12.15-8.16-19.92c0-7.81,2.72-14.46,8.16-19.97
			C453.9,63.13,460.43,60.36,468.11,60.36z M468.11,107.46c5.07,0,9.41-1.83,13.01-5.51c3.6-3.7,5.41-8.14,5.41-13.31
			c0-5.21-1.8-9.66-5.41-13.36c-3.6-3.67-7.94-5.5-13.01-5.5s-9.41,1.83-13.01,5.5c-3.6,3.7-5.41,8.16-5.41,13.36
			c0,5.17,1.8,9.61,5.41,13.31C458.7,105.63,463.04,107.46,468.11,107.46z"/>
		<path class="st1" d="M547.54,63.32c0.23,0.57,0.35,1.15,0.35,1.75s-0.13,1.22-0.4,1.85l-20.02,47.1c-0.8,1.87-2.24,2.8-4.3,2.8
			c-2.07,0-3.5-0.93-4.3-2.8l-20.07-47.1c-0.27-0.63-0.4-1.25-0.4-1.85s0.12-1.18,0.35-1.75c0.5-1.2,1.35-2.05,2.55-2.55
			c0.6-0.27,1.2-0.4,1.8-0.4s1.18,0.12,1.75,0.35c1.2,0.5,2.05,1.33,2.55,2.5l15.77,36.99l15.72-36.99c0.5-1.17,1.35-2,2.55-2.5
			c0.57-0.23,1.15-0.35,1.75-0.35s1.22,0.13,1.85,0.4C546.24,61.26,547.07,62.11,547.54,63.32z"/>
	</g>
</g>
</svg>
